# xmcd
#
# Track frame offsets:
# 150
# 16150
# 32560
# 53157
# 74887
# 94745
# 108097
# 125795
# 140387
# 158550
# 173565
# 188547
#
# Disc length: 2724 seconds
#
#
# Revision: 0
# Processed by: cddbd v1.5PL3 Copyright (c) Steve Scherf et al.
# Submitted via: FreeRIP 2.51 
#
DISCID=970aa20c
DTITLE=Alan Andrews - Alan Andrews
DYEAR=1996
DGENRE=Country
TTITLE0=Babble On
TTITLE1=Museums And Mausoleums
TTITLE2=(Like The) Claws Of A Hammer
TTITLE3=Inspiration
TTITLE4=The Ballad Of Orson Welles
TTITLE5=Let's Get Together Again
TTITLE6=Permanent Sleep
TTITLE7=Folk Music
TTITLE8=Dreaming Of A Place
TTITLE9=Noah Built His Ark
TTITLE10=Riding The Train
TTITLE11=Phony French
EXTD=
EXTT0=
EXTT1=
EXTT2=
EXTT3=
EXTT4=
EXTT5=
EXTT6=
EXTT7=
EXTT8=
EXTT9=
EXTT10=
EXTT11=
PLAYORDER=
